<?xml version="1.0" standalone="no"?>
<!DOCTYPE svg PUBLIC "-//W3C//DTD SVG 20010904//EN"
 "http://www.w3.org/TR/2001/REC-SVG-20010904/DTD/svg10.dtd">
<svg version="1.0" xmlns="http://www.w3.org/2000/svg"
 width="700.000000pt" height="700.000000pt" viewBox="0 0 700.000000 700.000000"
 preserveAspectRatio="xMidYMid meet">
<metadata>
Created by potrace 1.14, written by Peter Selinger 2001-2017
</metadata>
<g transform="translate(0.000000,700.000000) scale(0.100000,-0.100000)"
fill="#000000" stroke="none">
<path d="M960 6980 c-257 -48 -468 -163 -644 -350 -41 -44 -93 -108 -116 -142
-78 -119 -154 -298 -175 -413 -3 -16 -9 -48 -13 -70 -9 -50 -9 -4944 0 -5005
24 -165 90 -336 184 -481 61 -95 217 -251 316 -317 125 -84 289 -154 413 -176
17 -3 41 -9 55 -13 14 -4 1134 -9 2490 -10 2124 -2 2477 0 2550 12 503 87 884
471 967 974 10 59 10 4937 1 5011 -30 228 -146 468 -311 639 -165 172 -371
285 -609 336 l-113 24 -2450 -1 c-2316 0 -2455 -1 -2545 -18z"/>
</g>
</svg>
